<svg width="453" height="342" xmlns="http://www.w3.org/2000/svg" xmlns:xlink="http://www.w3.org/1999/xlink" xml:space="preserve" overflow="hidden"><g transform="translate(-981 -424)"><path d="M983.5 595C983.5 501.94 1058.94 426.5 1152 426.5L1263 426.5C1356.06 426.5 1431.5 501.94 1431.5 595L1431.5 595C1431.5 688.06 1356.06 763.5 1263 763.5L1152 763.5C1058.94 763.5 983.5 688.06 983.5 595Z" stroke="#000000" stroke-width="4.58333" stroke-miterlimit="8" fill="#ED7D31" fill-rule="evenodd"/><path d="M1013.5 595C1013.5 514.09 1079.09 448.5 1160 448.5L1255 448.5C1335.91 448.5 1401.5 514.09 1401.5 595L1401.5 595C1401.5 675.91 1335.91 741.5 1255 741.5L1160 741.5C1079.09 741.5 1013.5 675.91 1013.5 595Z" stroke="#000000" stroke-width="4.58333" stroke-miterlimit="8" fill="#5B9BD5" fill-rule="evenodd"/><text font-family="Roboto,Roboto_MSFontService,sans-serif" font-weight="400" font-size="83" transform="matrix(1 0 0 1 1130.1 624)">Text</text></g></svg>